<mxfile host="Electron" agent="Mozilla/5.0 (Windows NT 10.0; Win64; x64) AppleWebKit/537.36 (KHTML, like Gecko) draw.io/27.0.9 Chrome/134.0.6998.205 Electron/35.4.0 Safari/537.36" version="27.0.9">
  <diagram name="Page-1" id="YYA-tpIMSf6mjCUmN4pZ">
    <mxGraphModel dx="1181" dy="686" grid="1" gridSize="10" guides="1" tooltips="1" connect="1" arrows="1" fold="1" page="1" pageScale="1" pageWidth="850" pageHeight="1100" math="0" shadow="0">
      <root>
        <mxCell id="0" />
        <mxCell id="1" parent="0" />
        <mxCell id="SnCa2u7Qq1uV7oJIc8DQ-44" style="edgeStyle=none;rounded=0;orthogonalLoop=1;jettySize=auto;html=1;exitX=0.5;exitY=1;exitDx=0;exitDy=0;" parent="1" source="SnCa2u7Qq1uV7oJIc8DQ-1" target="SnCa2u7Qq1uV7oJIc8DQ-40" edge="1">
          <mxGeometry relative="1" as="geometry" />
        </mxCell>
        <mxCell id="SnCa2u7Qq1uV7oJIc8DQ-45" style="edgeStyle=none;rounded=0;orthogonalLoop=1;jettySize=auto;html=1;exitX=0.5;exitY=1;exitDx=0;exitDy=0;entryX=0.5;entryY=0;entryDx=0;entryDy=0;" parent="1" source="SnCa2u7Qq1uV7oJIc8DQ-1" target="SnCa2u7Qq1uV7oJIc8DQ-43" edge="1">
          <mxGeometry relative="1" as="geometry" />
        </mxCell>
        <mxCell id="SnCa2u7Qq1uV7oJIc8DQ-46" style="edgeStyle=none;rounded=0;orthogonalLoop=1;jettySize=auto;html=1;exitX=0.5;exitY=1;exitDx=0;exitDy=0;entryX=0.5;entryY=0;entryDx=0;entryDy=0;" parent="1" source="SnCa2u7Qq1uV7oJIc8DQ-1" target="SnCa2u7Qq1uV7oJIc8DQ-42" edge="1">
          <mxGeometry relative="1" as="geometry" />
        </mxCell>
        <mxCell id="SnCa2u7Qq1uV7oJIc8DQ-47" style="edgeStyle=none;rounded=0;orthogonalLoop=1;jettySize=auto;html=1;exitX=0.5;exitY=1;exitDx=0;exitDy=0;entryX=0.5;entryY=0;entryDx=0;entryDy=0;" parent="1" source="SnCa2u7Qq1uV7oJIc8DQ-1" target="SnCa2u7Qq1uV7oJIc8DQ-41" edge="1">
          <mxGeometry relative="1" as="geometry" />
        </mxCell>
        <mxCell id="SnCa2u7Qq1uV7oJIc8DQ-1" value="A_ij" style="rounded=0;whiteSpace=wrap;html=1;" parent="1" vertex="1">
          <mxGeometry x="150" y="200" width="220" height="30" as="geometry" />
        </mxCell>
        <mxCell id="SnCa2u7Qq1uV7oJIc8DQ-70" style="edgeStyle=none;rounded=0;orthogonalLoop=1;jettySize=auto;html=1;exitX=0.5;exitY=1;exitDx=0;exitDy=0;entryX=0.5;entryY=0;entryDx=0;entryDy=0;" parent="1" source="SnCa2u7Qq1uV7oJIc8DQ-40" target="SnCa2u7Qq1uV7oJIc8DQ-68" edge="1">
          <mxGeometry relative="1" as="geometry" />
        </mxCell>
        <mxCell id="SnCa2u7Qq1uV7oJIc8DQ-77" style="edgeStyle=none;rounded=0;orthogonalLoop=1;jettySize=auto;html=1;exitX=0.5;exitY=1;exitDx=0;exitDy=0;entryX=0.5;entryY=0;entryDx=0;entryDy=0;" parent="1" source="SnCa2u7Qq1uV7oJIc8DQ-40" target="SnCa2u7Qq1uV7oJIc8DQ-60" edge="1">
          <mxGeometry relative="1" as="geometry" />
        </mxCell>
        <mxCell id="SnCa2u7Qq1uV7oJIc8DQ-83" style="edgeStyle=none;rounded=0;orthogonalLoop=1;jettySize=auto;html=1;exitX=0.5;exitY=1;exitDx=0;exitDy=0;entryX=0.5;entryY=0;entryDx=0;entryDy=0;" parent="1" source="SnCa2u7Qq1uV7oJIc8DQ-40" target="SnCa2u7Qq1uV7oJIc8DQ-80" edge="1">
          <mxGeometry relative="1" as="geometry" />
        </mxCell>
        <mxCell id="SnCa2u7Qq1uV7oJIc8DQ-87" style="edgeStyle=none;rounded=0;orthogonalLoop=1;jettySize=auto;html=1;exitX=0.5;exitY=1;exitDx=0;exitDy=0;entryX=0.5;entryY=0;entryDx=0;entryDy=0;" parent="1" source="SnCa2u7Qq1uV7oJIc8DQ-40" target="SnCa2u7Qq1uV7oJIc8DQ-85" edge="1">
          <mxGeometry relative="1" as="geometry" />
        </mxCell>
        <mxCell id="SnCa2u7Qq1uV7oJIc8DQ-40" value="A_00" style="rounded=0;whiteSpace=wrap;html=1;" parent="1" vertex="1">
          <mxGeometry x="180" y="280" width="40" height="30" as="geometry" />
        </mxCell>
        <mxCell id="SnCa2u7Qq1uV7oJIc8DQ-71" style="edgeStyle=none;rounded=0;orthogonalLoop=1;jettySize=auto;html=1;exitX=0.5;exitY=1;exitDx=0;exitDy=0;entryX=0.5;entryY=0;entryDx=0;entryDy=0;" parent="1" source="SnCa2u7Qq1uV7oJIc8DQ-41" target="SnCa2u7Qq1uV7oJIc8DQ-68" edge="1">
          <mxGeometry relative="1" as="geometry">
            <mxPoint x="140" y="370" as="targetPoint" />
          </mxGeometry>
        </mxCell>
        <mxCell id="SnCa2u7Qq1uV7oJIc8DQ-76" style="edgeStyle=none;rounded=0;orthogonalLoop=1;jettySize=auto;html=1;exitX=0.5;exitY=1;exitDx=0;exitDy=0;entryX=0.5;entryY=0;entryDx=0;entryDy=0;" parent="1" source="SnCa2u7Qq1uV7oJIc8DQ-41" target="SnCa2u7Qq1uV7oJIc8DQ-74" edge="1">
          <mxGeometry relative="1" as="geometry" />
        </mxCell>
        <mxCell id="SnCa2u7Qq1uV7oJIc8DQ-78" style="edgeStyle=none;rounded=0;orthogonalLoop=1;jettySize=auto;html=1;exitX=0.5;exitY=1;exitDx=0;exitDy=0;entryX=0.5;entryY=0;entryDx=0;entryDy=0;" parent="1" source="SnCa2u7Qq1uV7oJIc8DQ-41" target="SnCa2u7Qq1uV7oJIc8DQ-59" edge="1">
          <mxGeometry relative="1" as="geometry" />
        </mxCell>
        <mxCell id="SnCa2u7Qq1uV7oJIc8DQ-92" style="edgeStyle=none;rounded=0;orthogonalLoop=1;jettySize=auto;html=1;exitX=0.5;exitY=1;exitDx=0;exitDy=0;" parent="1" source="SnCa2u7Qq1uV7oJIc8DQ-41" edge="1">
          <mxGeometry relative="1" as="geometry">
            <mxPoint x="380" y="390" as="targetPoint" />
          </mxGeometry>
        </mxCell>
        <mxCell id="SnCa2u7Qq1uV7oJIc8DQ-41" value="A_11" style="rounded=0;whiteSpace=wrap;html=1;" parent="1" vertex="1">
          <mxGeometry x="300" y="280" width="40" height="30" as="geometry" />
        </mxCell>
        <mxCell id="SnCa2u7Qq1uV7oJIc8DQ-75" style="edgeStyle=none;rounded=0;orthogonalLoop=1;jettySize=auto;html=1;exitX=0.5;exitY=1;exitDx=0;exitDy=0;entryX=0.5;entryY=0;entryDx=0;entryDy=0;" parent="1" source="SnCa2u7Qq1uV7oJIc8DQ-42" target="SnCa2u7Qq1uV7oJIc8DQ-74" edge="1">
          <mxGeometry relative="1" as="geometry" />
        </mxCell>
        <mxCell id="SnCa2u7Qq1uV7oJIc8DQ-86" style="edgeStyle=none;rounded=0;orthogonalLoop=1;jettySize=auto;html=1;exitX=0.5;exitY=1;exitDx=0;exitDy=0;entryX=0.5;entryY=0;entryDx=0;entryDy=0;" parent="1" source="SnCa2u7Qq1uV7oJIc8DQ-42" target="SnCa2u7Qq1uV7oJIc8DQ-85" edge="1">
          <mxGeometry relative="1" as="geometry" />
        </mxCell>
        <mxCell id="SnCa2u7Qq1uV7oJIc8DQ-42" value="A_10" style="rounded=0;whiteSpace=wrap;html=1;" parent="1" vertex="1">
          <mxGeometry x="260" y="280" width="40" height="30" as="geometry" />
        </mxCell>
        <mxCell id="SnCa2u7Qq1uV7oJIc8DQ-84" style="edgeStyle=none;rounded=0;orthogonalLoop=1;jettySize=auto;html=1;exitX=0.5;exitY=1;exitDx=0;exitDy=0;entryX=0.5;entryY=0;entryDx=0;entryDy=0;" parent="1" source="SnCa2u7Qq1uV7oJIc8DQ-43" target="SnCa2u7Qq1uV7oJIc8DQ-80" edge="1">
          <mxGeometry relative="1" as="geometry">
            <mxPoint x="300" y="380" as="targetPoint" />
          </mxGeometry>
        </mxCell>
        <mxCell id="SnCa2u7Qq1uV7oJIc8DQ-91" style="edgeStyle=none;rounded=0;orthogonalLoop=1;jettySize=auto;html=1;exitX=0.5;exitY=1;exitDx=0;exitDy=0;entryX=0.5;entryY=0;entryDx=0;entryDy=0;" parent="1" source="SnCa2u7Qq1uV7oJIc8DQ-43" target="SnCa2u7Qq1uV7oJIc8DQ-89" edge="1">
          <mxGeometry relative="1" as="geometry" />
        </mxCell>
        <mxCell id="SnCa2u7Qq1uV7oJIc8DQ-43" value="A_01" style="rounded=0;whiteSpace=wrap;html=1;" parent="1" vertex="1">
          <mxGeometry x="220" y="280" width="40" height="30" as="geometry" />
        </mxCell>
        <mxCell id="SnCa2u7Qq1uV7oJIc8DQ-48" style="edgeStyle=none;rounded=0;orthogonalLoop=1;jettySize=auto;html=1;exitX=0.5;exitY=1;exitDx=0;exitDy=0;" parent="1" source="SnCa2u7Qq1uV7oJIc8DQ-52" target="SnCa2u7Qq1uV7oJIc8DQ-53" edge="1">
          <mxGeometry relative="1" as="geometry" />
        </mxCell>
        <mxCell id="SnCa2u7Qq1uV7oJIc8DQ-49" style="edgeStyle=none;rounded=0;orthogonalLoop=1;jettySize=auto;html=1;exitX=0.5;exitY=1;exitDx=0;exitDy=0;entryX=0.5;entryY=0;entryDx=0;entryDy=0;" parent="1" source="SnCa2u7Qq1uV7oJIc8DQ-52" target="SnCa2u7Qq1uV7oJIc8DQ-56" edge="1">
          <mxGeometry relative="1" as="geometry" />
        </mxCell>
        <mxCell id="SnCa2u7Qq1uV7oJIc8DQ-50" style="edgeStyle=none;rounded=0;orthogonalLoop=1;jettySize=auto;html=1;exitX=0.5;exitY=1;exitDx=0;exitDy=0;entryX=0.5;entryY=0;entryDx=0;entryDy=0;" parent="1" source="SnCa2u7Qq1uV7oJIc8DQ-52" target="SnCa2u7Qq1uV7oJIc8DQ-55" edge="1">
          <mxGeometry relative="1" as="geometry" />
        </mxCell>
        <mxCell id="SnCa2u7Qq1uV7oJIc8DQ-51" style="edgeStyle=none;rounded=0;orthogonalLoop=1;jettySize=auto;html=1;exitX=0.5;exitY=1;exitDx=0;exitDy=0;entryX=0.5;entryY=0;entryDx=0;entryDy=0;" parent="1" source="SnCa2u7Qq1uV7oJIc8DQ-52" target="SnCa2u7Qq1uV7oJIc8DQ-54" edge="1">
          <mxGeometry relative="1" as="geometry" />
        </mxCell>
        <mxCell id="SnCa2u7Qq1uV7oJIc8DQ-52" value="B_ij" style="rounded=0;whiteSpace=wrap;html=1;" parent="1" vertex="1">
          <mxGeometry x="480" y="200" width="220" height="30" as="geometry" />
        </mxCell>
        <mxCell id="SnCa2u7Qq1uV7oJIc8DQ-101" style="edgeStyle=none;rounded=0;orthogonalLoop=1;jettySize=auto;html=1;exitX=0.5;exitY=1;exitDx=0;exitDy=0;entryX=0.5;entryY=0;entryDx=0;entryDy=0;" parent="1" source="SnCa2u7Qq1uV7oJIc8DQ-53" target="SnCa2u7Qq1uV7oJIc8DQ-100" edge="1">
          <mxGeometry relative="1" as="geometry" />
        </mxCell>
        <mxCell id="SnCa2u7Qq1uV7oJIc8DQ-103" style="edgeStyle=none;rounded=0;orthogonalLoop=1;jettySize=auto;html=1;exitX=0.5;exitY=1;exitDx=0;exitDy=0;entryX=0.5;entryY=0;entryDx=0;entryDy=0;" parent="1" source="SnCa2u7Qq1uV7oJIc8DQ-53" target="SnCa2u7Qq1uV7oJIc8DQ-93" edge="1">
          <mxGeometry relative="1" as="geometry" />
        </mxCell>
        <mxCell id="SnCa2u7Qq1uV7oJIc8DQ-112" style="edgeStyle=none;rounded=0;orthogonalLoop=1;jettySize=auto;html=1;exitX=0.5;exitY=1;exitDx=0;exitDy=0;" parent="1" source="SnCa2u7Qq1uV7oJIc8DQ-53" edge="1">
          <mxGeometry relative="1" as="geometry">
            <mxPoint x="590" y="390" as="targetPoint" />
          </mxGeometry>
        </mxCell>
        <mxCell id="SnCa2u7Qq1uV7oJIc8DQ-117" style="edgeStyle=none;rounded=0;orthogonalLoop=1;jettySize=auto;html=1;exitX=0.5;exitY=1;exitDx=0;exitDy=0;entryX=0.5;entryY=0;entryDx=0;entryDy=0;" parent="1" source="SnCa2u7Qq1uV7oJIc8DQ-53" target="SnCa2u7Qq1uV7oJIc8DQ-115" edge="1">
          <mxGeometry relative="1" as="geometry" />
        </mxCell>
        <mxCell id="SnCa2u7Qq1uV7oJIc8DQ-53" value="B_00" style="rounded=0;whiteSpace=wrap;html=1;" parent="1" vertex="1">
          <mxGeometry x="510" y="280" width="40" height="30" as="geometry" />
        </mxCell>
        <mxCell id="SnCa2u7Qq1uV7oJIc8DQ-102" style="edgeStyle=none;rounded=0;orthogonalLoop=1;jettySize=auto;html=1;exitX=0.5;exitY=1;exitDx=0;exitDy=0;" parent="1" source="SnCa2u7Qq1uV7oJIc8DQ-54" edge="1">
          <mxGeometry relative="1" as="geometry">
            <mxPoint x="470" y="390" as="targetPoint" />
          </mxGeometry>
        </mxCell>
        <mxCell id="SnCa2u7Qq1uV7oJIc8DQ-107" style="edgeStyle=none;rounded=0;orthogonalLoop=1;jettySize=auto;html=1;exitX=0.5;exitY=1;exitDx=0;exitDy=0;" parent="1" source="SnCa2u7Qq1uV7oJIc8DQ-54" edge="1">
          <mxGeometry relative="1" as="geometry">
            <mxPoint x="550" y="390" as="targetPoint" />
          </mxGeometry>
        </mxCell>
        <mxCell id="SnCa2u7Qq1uV7oJIc8DQ-114" style="edgeStyle=none;rounded=0;orthogonalLoop=1;jettySize=auto;html=1;exitX=0.5;exitY=1;exitDx=0;exitDy=0;entryX=0.5;entryY=0;entryDx=0;entryDy=0;" parent="1" source="SnCa2u7Qq1uV7oJIc8DQ-54" target="SnCa2u7Qq1uV7oJIc8DQ-94" edge="1">
          <mxGeometry relative="1" as="geometry" />
        </mxCell>
        <mxCell id="SnCa2u7Qq1uV7oJIc8DQ-123" style="edgeStyle=none;rounded=0;orthogonalLoop=1;jettySize=auto;html=1;exitX=0.5;exitY=1;exitDx=0;exitDy=0;entryX=0.5;entryY=0;entryDx=0;entryDy=0;" parent="1" source="SnCa2u7Qq1uV7oJIc8DQ-54" target="SnCa2u7Qq1uV7oJIc8DQ-120" edge="1">
          <mxGeometry relative="1" as="geometry" />
        </mxCell>
        <mxCell id="SnCa2u7Qq1uV7oJIc8DQ-54" value="B_11" style="rounded=0;whiteSpace=wrap;html=1;" parent="1" vertex="1">
          <mxGeometry x="630" y="280" width="40" height="30" as="geometry" />
        </mxCell>
        <mxCell id="SnCa2u7Qq1uV7oJIc8DQ-111" style="edgeStyle=none;rounded=0;orthogonalLoop=1;jettySize=auto;html=1;exitX=0.5;exitY=1;exitDx=0;exitDy=0;entryX=0.5;entryY=0;entryDx=0;entryDy=0;" parent="1" source="SnCa2u7Qq1uV7oJIc8DQ-55" target="SnCa2u7Qq1uV7oJIc8DQ-110" edge="1">
          <mxGeometry relative="1" as="geometry" />
        </mxCell>
        <mxCell id="SnCa2u7Qq1uV7oJIc8DQ-122" style="edgeStyle=none;rounded=0;orthogonalLoop=1;jettySize=auto;html=1;exitX=0.5;exitY=1;exitDx=0;exitDy=0;entryX=0.5;entryY=0;entryDx=0;entryDy=0;" parent="1" source="SnCa2u7Qq1uV7oJIc8DQ-55" target="SnCa2u7Qq1uV7oJIc8DQ-120" edge="1">
          <mxGeometry relative="1" as="geometry" />
        </mxCell>
        <mxCell id="SnCa2u7Qq1uV7oJIc8DQ-55" value="B_10" style="rounded=0;whiteSpace=wrap;html=1;" parent="1" vertex="1">
          <mxGeometry x="590" y="280" width="40" height="30" as="geometry" />
        </mxCell>
        <mxCell id="SnCa2u7Qq1uV7oJIc8DQ-106" style="edgeStyle=none;rounded=0;orthogonalLoop=1;jettySize=auto;html=1;exitX=0.5;exitY=1;exitDx=0;exitDy=0;entryX=0.5;entryY=0;entryDx=0;entryDy=0;" parent="1" source="SnCa2u7Qq1uV7oJIc8DQ-56" target="SnCa2u7Qq1uV7oJIc8DQ-105" edge="1">
          <mxGeometry relative="1" as="geometry" />
        </mxCell>
        <mxCell id="SnCa2u7Qq1uV7oJIc8DQ-119" style="edgeStyle=none;rounded=0;orthogonalLoop=1;jettySize=auto;html=1;exitX=0.5;exitY=1;exitDx=0;exitDy=0;" parent="1" source="SnCa2u7Qq1uV7oJIc8DQ-56" edge="1">
          <mxGeometry relative="1" as="geometry">
            <mxPoint x="670" y="390" as="targetPoint" />
          </mxGeometry>
        </mxCell>
        <mxCell id="SnCa2u7Qq1uV7oJIc8DQ-56" value="B_01" style="rounded=0;whiteSpace=wrap;html=1;" parent="1" vertex="1">
          <mxGeometry x="550" y="280" width="40" height="30" as="geometry" />
        </mxCell>
        <mxCell id="SnCa2u7Qq1uV7oJIc8DQ-147" style="edgeStyle=none;rounded=0;orthogonalLoop=1;jettySize=auto;html=1;exitX=0.5;exitY=1;exitDx=0;exitDy=0;entryX=0.5;entryY=0;entryDx=0;entryDy=0;" parent="1" source="SnCa2u7Qq1uV7oJIc8DQ-57" target="SnCa2u7Qq1uV7oJIc8DQ-132" edge="1">
          <mxGeometry relative="1" as="geometry" />
        </mxCell>
        <mxCell id="SnCa2u7Qq1uV7oJIc8DQ-57" value="T1" style="rounded=0;whiteSpace=wrap;html=1;" parent="1" vertex="1">
          <mxGeometry x="160" y="440" width="40" height="30" as="geometry" />
        </mxCell>
        <mxCell id="SnCa2u7Qq1uV7oJIc8DQ-150" style="edgeStyle=none;rounded=0;orthogonalLoop=1;jettySize=auto;html=1;exitX=0.5;exitY=1;exitDx=0;exitDy=0;entryX=0.5;entryY=0;entryDx=0;entryDy=0;" parent="1" source="SnCa2u7Qq1uV7oJIc8DQ-58" target="SnCa2u7Qq1uV7oJIc8DQ-135" edge="1">
          <mxGeometry relative="1" as="geometry" />
        </mxCell>
        <mxCell id="SnCa2u7Qq1uV7oJIc8DQ-58" value="T4" style="rounded=0;whiteSpace=wrap;html=1;" parent="1" vertex="1">
          <mxGeometry x="280" y="440" width="40" height="30" as="geometry" />
        </mxCell>
        <mxCell id="SnCa2u7Qq1uV7oJIc8DQ-149" style="edgeStyle=none;rounded=0;orthogonalLoop=1;jettySize=auto;html=1;exitX=0.5;exitY=1;exitDx=0;exitDy=0;entryX=0.5;entryY=0;entryDx=0;entryDy=0;" parent="1" source="SnCa2u7Qq1uV7oJIc8DQ-59" target="SnCa2u7Qq1uV7oJIc8DQ-134" edge="1">
          <mxGeometry relative="1" as="geometry" />
        </mxCell>
        <mxCell id="SnCa2u7Qq1uV7oJIc8DQ-59" value="T3" style="rounded=0;whiteSpace=wrap;html=1;" parent="1" vertex="1">
          <mxGeometry x="240" y="440" width="40" height="30" as="geometry" />
        </mxCell>
        <mxCell id="SnCa2u7Qq1uV7oJIc8DQ-148" style="edgeStyle=none;rounded=0;orthogonalLoop=1;jettySize=auto;html=1;exitX=0.5;exitY=1;exitDx=0;exitDy=0;entryX=0.5;entryY=0;entryDx=0;entryDy=0;" parent="1" source="SnCa2u7Qq1uV7oJIc8DQ-60" target="SnCa2u7Qq1uV7oJIc8DQ-133" edge="1">
          <mxGeometry relative="1" as="geometry" />
        </mxCell>
        <mxCell id="SnCa2u7Qq1uV7oJIc8DQ-60" value="T2" style="rounded=0;whiteSpace=wrap;html=1;" parent="1" vertex="1">
          <mxGeometry x="200" y="440" width="40" height="30" as="geometry" />
        </mxCell>
        <mxCell id="SnCa2u7Qq1uV7oJIc8DQ-152" style="edgeStyle=none;rounded=0;orthogonalLoop=1;jettySize=auto;html=1;exitX=0.5;exitY=1;exitDx=0;exitDy=0;entryX=0.5;entryY=0;entryDx=0;entryDy=0;" parent="1" source="SnCa2u7Qq1uV7oJIc8DQ-61" target="SnCa2u7Qq1uV7oJIc8DQ-137" edge="1">
          <mxGeometry relative="1" as="geometry" />
        </mxCell>
        <mxCell id="SnCa2u7Qq1uV7oJIc8DQ-61" value="T6" style="rounded=0;whiteSpace=wrap;html=1;" parent="1" vertex="1">
          <mxGeometry x="360" y="440" width="40" height="30" as="geometry" />
        </mxCell>
        <mxCell id="SnCa2u7Qq1uV7oJIc8DQ-138" style="edgeStyle=none;rounded=0;orthogonalLoop=1;jettySize=auto;html=1;exitX=0.5;exitY=1;exitDx=0;exitDy=0;entryX=0.5;entryY=0;entryDx=0;entryDy=0;" parent="1" source="SnCa2u7Qq1uV7oJIc8DQ-62" target="SnCa2u7Qq1uV7oJIc8DQ-131" edge="1">
          <mxGeometry relative="1" as="geometry" />
        </mxCell>
        <mxCell id="SnCa2u7Qq1uV7oJIc8DQ-62" value="T0" style="rounded=0;whiteSpace=wrap;html=1;" parent="1" vertex="1">
          <mxGeometry x="120" y="440" width="40" height="30" as="geometry" />
        </mxCell>
        <mxCell id="SnCa2u7Qq1uV7oJIc8DQ-151" style="edgeStyle=none;rounded=0;orthogonalLoop=1;jettySize=auto;html=1;exitX=0.5;exitY=1;exitDx=0;exitDy=0;entryX=0.5;entryY=0;entryDx=0;entryDy=0;" parent="1" source="SnCa2u7Qq1uV7oJIc8DQ-63" target="SnCa2u7Qq1uV7oJIc8DQ-136" edge="1">
          <mxGeometry relative="1" as="geometry" />
        </mxCell>
        <mxCell id="SnCa2u7Qq1uV7oJIc8DQ-63" value="T5" style="rounded=0;whiteSpace=wrap;html=1;" parent="1" vertex="1">
          <mxGeometry x="320" y="440" width="40" height="30" as="geometry" />
        </mxCell>
        <mxCell id="SnCa2u7Qq1uV7oJIc8DQ-69" style="edgeStyle=none;rounded=0;orthogonalLoop=1;jettySize=auto;html=1;exitX=0.5;exitY=1;exitDx=0;exitDy=0;entryX=0.5;entryY=0;entryDx=0;entryDy=0;" parent="1" source="SnCa2u7Qq1uV7oJIc8DQ-68" target="SnCa2u7Qq1uV7oJIc8DQ-62" edge="1">
          <mxGeometry relative="1" as="geometry" />
        </mxCell>
        <mxCell id="SnCa2u7Qq1uV7oJIc8DQ-68" value="+" style="ellipse;whiteSpace=wrap;html=1;aspect=fixed;" parent="1" vertex="1">
          <mxGeometry x="130" y="390" width="20" height="20" as="geometry" />
        </mxCell>
        <mxCell id="SnCa2u7Qq1uV7oJIc8DQ-79" style="edgeStyle=none;rounded=0;orthogonalLoop=1;jettySize=auto;html=1;exitX=0.5;exitY=1;exitDx=0;exitDy=0;entryX=0.5;entryY=0;entryDx=0;entryDy=0;" parent="1" source="SnCa2u7Qq1uV7oJIc8DQ-74" target="SnCa2u7Qq1uV7oJIc8DQ-57" edge="1">
          <mxGeometry relative="1" as="geometry" />
        </mxCell>
        <mxCell id="SnCa2u7Qq1uV7oJIc8DQ-74" value="+" style="ellipse;whiteSpace=wrap;html=1;aspect=fixed;" parent="1" vertex="1">
          <mxGeometry x="170" y="390" width="20" height="20" as="geometry" />
        </mxCell>
        <mxCell id="SnCa2u7Qq1uV7oJIc8DQ-82" style="edgeStyle=none;rounded=0;orthogonalLoop=1;jettySize=auto;html=1;exitX=0.5;exitY=1;exitDx=0;exitDy=0;entryX=0.5;entryY=0;entryDx=0;entryDy=0;" parent="1" source="SnCa2u7Qq1uV7oJIc8DQ-80" target="SnCa2u7Qq1uV7oJIc8DQ-58" edge="1">
          <mxGeometry relative="1" as="geometry" />
        </mxCell>
        <mxCell id="SnCa2u7Qq1uV7oJIc8DQ-80" value="+" style="ellipse;whiteSpace=wrap;html=1;aspect=fixed;" parent="1" vertex="1">
          <mxGeometry x="290" y="390" width="20" height="20" as="geometry" />
        </mxCell>
        <mxCell id="SnCa2u7Qq1uV7oJIc8DQ-88" style="edgeStyle=none;rounded=0;orthogonalLoop=1;jettySize=auto;html=1;exitX=0.5;exitY=1;exitDx=0;exitDy=0;entryX=0.5;entryY=0;entryDx=0;entryDy=0;" parent="1" source="SnCa2u7Qq1uV7oJIc8DQ-85" target="SnCa2u7Qq1uV7oJIc8DQ-63" edge="1">
          <mxGeometry relative="1" as="geometry" />
        </mxCell>
        <mxCell id="SnCa2u7Qq1uV7oJIc8DQ-85" value="+" style="ellipse;whiteSpace=wrap;html=1;aspect=fixed;" parent="1" vertex="1">
          <mxGeometry x="330" y="390" width="20" height="20" as="geometry" />
        </mxCell>
        <mxCell id="SnCa2u7Qq1uV7oJIc8DQ-90" style="edgeStyle=none;rounded=0;orthogonalLoop=1;jettySize=auto;html=1;exitX=0.5;exitY=1;exitDx=0;exitDy=0;entryX=0.5;entryY=0;entryDx=0;entryDy=0;" parent="1" source="SnCa2u7Qq1uV7oJIc8DQ-89" target="SnCa2u7Qq1uV7oJIc8DQ-61" edge="1">
          <mxGeometry relative="1" as="geometry" />
        </mxCell>
        <mxCell id="SnCa2u7Qq1uV7oJIc8DQ-89" value="+" style="ellipse;whiteSpace=wrap;html=1;aspect=fixed;" parent="1" vertex="1">
          <mxGeometry x="370" y="390" width="20" height="20" as="geometry" />
        </mxCell>
        <mxCell id="SnCa2u7Qq1uV7oJIc8DQ-153" style="edgeStyle=none;rounded=0;orthogonalLoop=1;jettySize=auto;html=1;exitX=0.5;exitY=1;exitDx=0;exitDy=0;entryX=0.5;entryY=0;entryDx=0;entryDy=0;" parent="1" source="SnCa2u7Qq1uV7oJIc8DQ-93" target="SnCa2u7Qq1uV7oJIc8DQ-132" edge="1">
          <mxGeometry relative="1" as="geometry" />
        </mxCell>
        <mxCell id="SnCa2u7Qq1uV7oJIc8DQ-93" value="S1" style="rounded=0;whiteSpace=wrap;html=1;" parent="1" vertex="1">
          <mxGeometry x="490" y="440" width="40" height="30" as="geometry" />
        </mxCell>
        <mxCell id="SnCa2u7Qq1uV7oJIc8DQ-156" style="edgeStyle=none;rounded=0;orthogonalLoop=1;jettySize=auto;html=1;exitX=0.5;exitY=1;exitDx=0;exitDy=0;entryX=0.5;entryY=0;entryDx=0;entryDy=0;" parent="1" source="SnCa2u7Qq1uV7oJIc8DQ-94" target="SnCa2u7Qq1uV7oJIc8DQ-135" edge="1">
          <mxGeometry relative="1" as="geometry" />
        </mxCell>
        <mxCell id="SnCa2u7Qq1uV7oJIc8DQ-94" value="S4" style="rounded=0;whiteSpace=wrap;html=1;" parent="1" vertex="1">
          <mxGeometry x="610" y="440" width="40" height="30" as="geometry" />
        </mxCell>
        <mxCell id="SnCa2u7Qq1uV7oJIc8DQ-155" style="edgeStyle=none;rounded=0;orthogonalLoop=1;jettySize=auto;html=1;exitX=0.5;exitY=1;exitDx=0;exitDy=0;entryX=0.5;entryY=0;entryDx=0;entryDy=0;" parent="1" source="SnCa2u7Qq1uV7oJIc8DQ-95" target="SnCa2u7Qq1uV7oJIc8DQ-134" edge="1">
          <mxGeometry relative="1" as="geometry" />
        </mxCell>
        <mxCell id="SnCa2u7Qq1uV7oJIc8DQ-95" value="S3" style="rounded=0;whiteSpace=wrap;html=1;" parent="1" vertex="1">
          <mxGeometry x="570" y="440" width="40" height="30" as="geometry" />
        </mxCell>
        <mxCell id="SnCa2u7Qq1uV7oJIc8DQ-154" style="edgeStyle=none;rounded=0;orthogonalLoop=1;jettySize=auto;html=1;exitX=0.5;exitY=1;exitDx=0;exitDy=0;entryX=0.5;entryY=0;entryDx=0;entryDy=0;" parent="1" source="SnCa2u7Qq1uV7oJIc8DQ-96" target="SnCa2u7Qq1uV7oJIc8DQ-133" edge="1">
          <mxGeometry relative="1" as="geometry" />
        </mxCell>
        <mxCell id="SnCa2u7Qq1uV7oJIc8DQ-96" value="S2" style="rounded=0;whiteSpace=wrap;html=1;" parent="1" vertex="1">
          <mxGeometry x="530" y="440" width="40" height="30" as="geometry" />
        </mxCell>
        <mxCell id="SnCa2u7Qq1uV7oJIc8DQ-158" style="edgeStyle=none;rounded=0;orthogonalLoop=1;jettySize=auto;html=1;exitX=0.5;exitY=1;exitDx=0;exitDy=0;entryX=0.5;entryY=0;entryDx=0;entryDy=0;" parent="1" source="SnCa2u7Qq1uV7oJIc8DQ-97" target="SnCa2u7Qq1uV7oJIc8DQ-137" edge="1">
          <mxGeometry relative="1" as="geometry" />
        </mxCell>
        <mxCell id="SnCa2u7Qq1uV7oJIc8DQ-97" value="S6" style="rounded=0;whiteSpace=wrap;html=1;" parent="1" vertex="1">
          <mxGeometry x="690" y="440" width="40" height="30" as="geometry" />
        </mxCell>
        <mxCell id="SnCa2u7Qq1uV7oJIc8DQ-146" style="edgeStyle=none;rounded=0;orthogonalLoop=1;jettySize=auto;html=1;exitX=0.5;exitY=1;exitDx=0;exitDy=0;entryX=0.5;entryY=0;entryDx=0;entryDy=0;" parent="1" source="SnCa2u7Qq1uV7oJIc8DQ-98" target="SnCa2u7Qq1uV7oJIc8DQ-131" edge="1">
          <mxGeometry relative="1" as="geometry" />
        </mxCell>
        <mxCell id="SnCa2u7Qq1uV7oJIc8DQ-98" value="S0" style="rounded=0;whiteSpace=wrap;html=1;" parent="1" vertex="1">
          <mxGeometry x="450" y="440" width="40" height="30" as="geometry" />
        </mxCell>
        <mxCell id="SnCa2u7Qq1uV7oJIc8DQ-157" style="edgeStyle=none;rounded=0;orthogonalLoop=1;jettySize=auto;html=1;exitX=0.5;exitY=1;exitDx=0;exitDy=0;entryX=0.5;entryY=0;entryDx=0;entryDy=0;" parent="1" source="SnCa2u7Qq1uV7oJIc8DQ-99" target="SnCa2u7Qq1uV7oJIc8DQ-136" edge="1">
          <mxGeometry relative="1" as="geometry" />
        </mxCell>
        <mxCell id="SnCa2u7Qq1uV7oJIc8DQ-99" value="S5" style="rounded=0;whiteSpace=wrap;html=1;" parent="1" vertex="1">
          <mxGeometry x="650" y="440" width="40" height="30" as="geometry" />
        </mxCell>
        <mxCell id="SnCa2u7Qq1uV7oJIc8DQ-104" style="edgeStyle=none;rounded=0;orthogonalLoop=1;jettySize=auto;html=1;exitX=0.5;exitY=1;exitDx=0;exitDy=0;entryX=0.5;entryY=0;entryDx=0;entryDy=0;" parent="1" source="SnCa2u7Qq1uV7oJIc8DQ-100" target="SnCa2u7Qq1uV7oJIc8DQ-98" edge="1">
          <mxGeometry relative="1" as="geometry" />
        </mxCell>
        <mxCell id="SnCa2u7Qq1uV7oJIc8DQ-100" value="+" style="ellipse;whiteSpace=wrap;html=1;aspect=fixed;" parent="1" vertex="1">
          <mxGeometry x="460" y="390" width="20" height="20" as="geometry" />
        </mxCell>
        <mxCell id="SnCa2u7Qq1uV7oJIc8DQ-108" style="edgeStyle=none;rounded=0;orthogonalLoop=1;jettySize=auto;html=1;exitX=0.5;exitY=1;exitDx=0;exitDy=0;entryX=0.5;entryY=0;entryDx=0;entryDy=0;" parent="1" source="SnCa2u7Qq1uV7oJIc8DQ-105" target="SnCa2u7Qq1uV7oJIc8DQ-96" edge="1">
          <mxGeometry relative="1" as="geometry" />
        </mxCell>
        <mxCell id="SnCa2u7Qq1uV7oJIc8DQ-105" value="-" style="ellipse;whiteSpace=wrap;html=1;aspect=fixed;" parent="1" vertex="1">
          <mxGeometry x="540" y="390" width="20" height="20" as="geometry" />
        </mxCell>
        <mxCell id="SnCa2u7Qq1uV7oJIc8DQ-113" style="edgeStyle=none;rounded=0;orthogonalLoop=1;jettySize=auto;html=1;exitX=0.5;exitY=1;exitDx=0;exitDy=0;entryX=0.5;entryY=0;entryDx=0;entryDy=0;" parent="1" source="SnCa2u7Qq1uV7oJIc8DQ-110" target="SnCa2u7Qq1uV7oJIc8DQ-95" edge="1">
          <mxGeometry relative="1" as="geometry" />
        </mxCell>
        <mxCell id="SnCa2u7Qq1uV7oJIc8DQ-110" value="-" style="ellipse;whiteSpace=wrap;html=1;aspect=fixed;" parent="1" vertex="1">
          <mxGeometry x="580" y="390" width="20" height="20" as="geometry" />
        </mxCell>
        <mxCell id="SnCa2u7Qq1uV7oJIc8DQ-118" style="edgeStyle=none;rounded=0;orthogonalLoop=1;jettySize=auto;html=1;exitX=0.5;exitY=1;exitDx=0;exitDy=0;entryX=0.5;entryY=0;entryDx=0;entryDy=0;" parent="1" source="SnCa2u7Qq1uV7oJIc8DQ-115" target="SnCa2u7Qq1uV7oJIc8DQ-99" edge="1">
          <mxGeometry relative="1" as="geometry" />
        </mxCell>
        <mxCell id="SnCa2u7Qq1uV7oJIc8DQ-115" value="+" style="ellipse;whiteSpace=wrap;html=1;aspect=fixed;" parent="1" vertex="1">
          <mxGeometry x="660" y="390" width="20" height="20" as="geometry" />
        </mxCell>
        <mxCell id="SnCa2u7Qq1uV7oJIc8DQ-121" style="edgeStyle=none;rounded=0;orthogonalLoop=1;jettySize=auto;html=1;exitX=0.5;exitY=1;exitDx=0;exitDy=0;entryX=0.5;entryY=0;entryDx=0;entryDy=0;" parent="1" source="SnCa2u7Qq1uV7oJIc8DQ-120" target="SnCa2u7Qq1uV7oJIc8DQ-97" edge="1">
          <mxGeometry relative="1" as="geometry" />
        </mxCell>
        <mxCell id="SnCa2u7Qq1uV7oJIc8DQ-120" value="+" style="ellipse;whiteSpace=wrap;html=1;aspect=fixed;" parent="1" vertex="1">
          <mxGeometry x="700" y="390" width="20" height="20" as="geometry" />
        </mxCell>
        <mxCell id="SnCa2u7Qq1uV7oJIc8DQ-185" style="edgeStyle=none;rounded=0;orthogonalLoop=1;jettySize=auto;html=1;exitX=0.5;exitY=1;exitDx=0;exitDy=0;entryX=0.5;entryY=0;entryDx=0;entryDy=0;" parent="1" source="SnCa2u7Qq1uV7oJIc8DQ-124" target="SnCa2u7Qq1uV7oJIc8DQ-165" edge="1">
          <mxGeometry relative="1" as="geometry" />
        </mxCell>
        <mxCell id="SnCa2u7Qq1uV7oJIc8DQ-193" style="edgeStyle=none;rounded=0;orthogonalLoop=1;jettySize=auto;html=1;exitX=0.5;exitY=1;exitDx=0;exitDy=0;entryX=0.5;entryY=0;entryDx=0;entryDy=0;" parent="1" source="SnCa2u7Qq1uV7oJIc8DQ-124" target="SnCa2u7Qq1uV7oJIc8DQ-188" edge="1">
          <mxGeometry relative="1" as="geometry">
            <mxPoint x="520" y="730" as="targetPoint" />
          </mxGeometry>
        </mxCell>
        <mxCell id="SnCa2u7Qq1uV7oJIc8DQ-124" value="M1" style="rounded=0;whiteSpace=wrap;html=1;" parent="1" vertex="1">
          <mxGeometry x="325" y="630" width="40" height="30" as="geometry" />
        </mxCell>
        <mxCell id="SnCa2u7Qq1uV7oJIc8DQ-178" style="edgeStyle=none;rounded=0;orthogonalLoop=1;jettySize=auto;html=1;exitX=0.5;exitY=1;exitDx=0;exitDy=0;entryX=0.5;entryY=0;entryDx=0;entryDy=0;" parent="1" source="SnCa2u7Qq1uV7oJIc8DQ-125" target="SnCa2u7Qq1uV7oJIc8DQ-176" edge="1">
          <mxGeometry relative="1" as="geometry" />
        </mxCell>
        <mxCell id="SnCa2u7Qq1uV7oJIc8DQ-184" style="edgeStyle=none;rounded=0;orthogonalLoop=1;jettySize=auto;html=1;exitX=0.5;exitY=1;exitDx=0;exitDy=0;entryX=0.5;entryY=0;entryDx=0;entryDy=0;" parent="1" source="SnCa2u7Qq1uV7oJIc8DQ-125" target="SnCa2u7Qq1uV7oJIc8DQ-164" edge="1">
          <mxGeometry relative="1" as="geometry" />
        </mxCell>
        <mxCell id="SnCa2u7Qq1uV7oJIc8DQ-125" value="M4" style="rounded=0;whiteSpace=wrap;html=1;" parent="1" vertex="1">
          <mxGeometry x="445" y="630" width="40" height="30" as="geometry" />
        </mxCell>
        <mxCell id="SnCa2u7Qq1uV7oJIc8DQ-172" style="edgeStyle=none;rounded=0;orthogonalLoop=1;jettySize=auto;html=1;exitX=0.5;exitY=1;exitDx=0;exitDy=0;entryX=0.5;entryY=0;entryDx=0;entryDy=0;" parent="1" source="SnCa2u7Qq1uV7oJIc8DQ-126" target="SnCa2u7Qq1uV7oJIc8DQ-163" edge="1">
          <mxGeometry relative="1" as="geometry" />
        </mxCell>
        <mxCell id="SnCa2u7Qq1uV7oJIc8DQ-126" value="M3" style="rounded=0;whiteSpace=wrap;html=1;" parent="1" vertex="1">
          <mxGeometry x="405" y="630" width="40" height="30" as="geometry" />
        </mxCell>
        <mxCell id="SnCa2u7Qq1uV7oJIc8DQ-183" style="edgeStyle=none;rounded=0;orthogonalLoop=1;jettySize=auto;html=1;exitX=0.5;exitY=1;exitDx=0;exitDy=0;entryX=0.5;entryY=0;entryDx=0;entryDy=0;" parent="1" source="SnCa2u7Qq1uV7oJIc8DQ-127" target="SnCa2u7Qq1uV7oJIc8DQ-164" edge="1">
          <mxGeometry relative="1" as="geometry" />
        </mxCell>
        <mxCell id="SnCa2u7Qq1uV7oJIc8DQ-194" style="edgeStyle=none;rounded=0;orthogonalLoop=1;jettySize=auto;html=1;exitX=0.5;exitY=1;exitDx=0;exitDy=0;entryX=0.5;entryY=0;entryDx=0;entryDy=0;" parent="1" source="SnCa2u7Qq1uV7oJIc8DQ-127" target="SnCa2u7Qq1uV7oJIc8DQ-189" edge="1">
          <mxGeometry relative="1" as="geometry" />
        </mxCell>
        <mxCell id="SnCa2u7Qq1uV7oJIc8DQ-127" value="M2" style="rounded=0;whiteSpace=wrap;html=1;" parent="1" vertex="1">
          <mxGeometry x="365" y="630" width="40" height="30" as="geometry" />
        </mxCell>
        <mxCell id="SnCa2u7Qq1uV7oJIc8DQ-181" style="edgeStyle=none;rounded=0;orthogonalLoop=1;jettySize=auto;html=1;exitX=0.5;exitY=1;exitDx=0;exitDy=0;entryX=0.5;entryY=0;entryDx=0;entryDy=0;" parent="1" source="SnCa2u7Qq1uV7oJIc8DQ-128" target="SnCa2u7Qq1uV7oJIc8DQ-179" edge="1">
          <mxGeometry relative="1" as="geometry">
            <mxPoint x="350" y="820.0000000000002" as="targetPoint" />
          </mxGeometry>
        </mxCell>
        <mxCell id="SnCa2u7Qq1uV7oJIc8DQ-128" value="M6" style="rounded=0;whiteSpace=wrap;html=1;" parent="1" vertex="1">
          <mxGeometry x="525" y="630" width="40" height="30" as="geometry" />
        </mxCell>
        <mxCell id="SnCa2u7Qq1uV7oJIc8DQ-171" style="edgeStyle=none;rounded=0;orthogonalLoop=1;jettySize=auto;html=1;exitX=0.5;exitY=1;exitDx=0;exitDy=0;entryX=0.5;entryY=0;entryDx=0;entryDy=0;" parent="1" source="SnCa2u7Qq1uV7oJIc8DQ-129" target="SnCa2u7Qq1uV7oJIc8DQ-163" edge="1">
          <mxGeometry relative="1" as="geometry" />
        </mxCell>
        <mxCell id="SnCa2u7Qq1uV7oJIc8DQ-192" style="edgeStyle=none;rounded=0;orthogonalLoop=1;jettySize=auto;html=1;exitX=0.5;exitY=1;exitDx=0;exitDy=0;entryX=0.5;entryY=0;entryDx=0;entryDy=0;" parent="1" source="SnCa2u7Qq1uV7oJIc8DQ-129" target="SnCa2u7Qq1uV7oJIc8DQ-188" edge="1">
          <mxGeometry relative="1" as="geometry" />
        </mxCell>
        <mxCell id="SnCa2u7Qq1uV7oJIc8DQ-129" value="M0" style="rounded=0;whiteSpace=wrap;html=1;" parent="1" vertex="1">
          <mxGeometry x="285" y="630" width="40" height="30" as="geometry" />
        </mxCell>
        <mxCell id="SnCa2u7Qq1uV7oJIc8DQ-186" style="edgeStyle=none;rounded=0;orthogonalLoop=1;jettySize=auto;html=1;exitX=0.5;exitY=1;exitDx=0;exitDy=0;entryX=0.5;entryY=0;entryDx=0;entryDy=0;" parent="1" source="SnCa2u7Qq1uV7oJIc8DQ-130" target="SnCa2u7Qq1uV7oJIc8DQ-165" edge="1">
          <mxGeometry relative="1" as="geometry">
            <mxPoint x="440" y="820" as="targetPoint" />
          </mxGeometry>
        </mxCell>
        <mxCell id="SnCa2u7Qq1uV7oJIc8DQ-196" style="edgeStyle=none;rounded=0;orthogonalLoop=1;jettySize=auto;html=1;exitX=0.5;exitY=1;exitDx=0;exitDy=0;entryX=0.5;entryY=0;entryDx=0;entryDy=0;" parent="1" source="SnCa2u7Qq1uV7oJIc8DQ-130" target="SnCa2u7Qq1uV7oJIc8DQ-190" edge="1">
          <mxGeometry relative="1" as="geometry">
            <mxPoint x="550" y="800" as="targetPoint" />
          </mxGeometry>
        </mxCell>
        <mxCell id="SnCa2u7Qq1uV7oJIc8DQ-130" value="M5" style="rounded=0;whiteSpace=wrap;html=1;" parent="1" vertex="1">
          <mxGeometry x="485" y="630" width="40" height="30" as="geometry" />
        </mxCell>
        <mxCell id="SnCa2u7Qq1uV7oJIc8DQ-139" style="edgeStyle=none;rounded=0;orthogonalLoop=1;jettySize=auto;html=1;exitX=0.5;exitY=1;exitDx=0;exitDy=0;entryX=0.5;entryY=0;entryDx=0;entryDy=0;" parent="1" source="SnCa2u7Qq1uV7oJIc8DQ-131" target="SnCa2u7Qq1uV7oJIc8DQ-129" edge="1">
          <mxGeometry relative="1" as="geometry" />
        </mxCell>
        <mxCell id="SnCa2u7Qq1uV7oJIc8DQ-131" value="x" style="ellipse;whiteSpace=wrap;html=1;aspect=fixed;" parent="1" vertex="1">
          <mxGeometry x="295" y="580" width="20" height="20" as="geometry" />
        </mxCell>
        <mxCell id="SnCa2u7Qq1uV7oJIc8DQ-140" style="edgeStyle=none;rounded=0;orthogonalLoop=1;jettySize=auto;html=1;exitX=0.5;exitY=1;exitDx=0;exitDy=0;entryX=0.5;entryY=0;entryDx=0;entryDy=0;" parent="1" source="SnCa2u7Qq1uV7oJIc8DQ-132" target="SnCa2u7Qq1uV7oJIc8DQ-124" edge="1">
          <mxGeometry relative="1" as="geometry" />
        </mxCell>
        <mxCell id="SnCa2u7Qq1uV7oJIc8DQ-132" value="x" style="ellipse;whiteSpace=wrap;html=1;aspect=fixed;" parent="1" vertex="1">
          <mxGeometry x="335" y="580" width="20" height="20" as="geometry" />
        </mxCell>
        <mxCell id="SnCa2u7Qq1uV7oJIc8DQ-141" style="edgeStyle=none;rounded=0;orthogonalLoop=1;jettySize=auto;html=1;exitX=0.5;exitY=1;exitDx=0;exitDy=0;entryX=0.5;entryY=0;entryDx=0;entryDy=0;" parent="1" source="SnCa2u7Qq1uV7oJIc8DQ-133" target="SnCa2u7Qq1uV7oJIc8DQ-127" edge="1">
          <mxGeometry relative="1" as="geometry" />
        </mxCell>
        <mxCell id="SnCa2u7Qq1uV7oJIc8DQ-133" value="x" style="ellipse;whiteSpace=wrap;html=1;aspect=fixed;" parent="1" vertex="1">
          <mxGeometry x="375" y="580" width="20" height="20" as="geometry" />
        </mxCell>
        <mxCell id="SnCa2u7Qq1uV7oJIc8DQ-142" style="edgeStyle=none;rounded=0;orthogonalLoop=1;jettySize=auto;html=1;exitX=0.5;exitY=1;exitDx=0;exitDy=0;entryX=0.5;entryY=0;entryDx=0;entryDy=0;" parent="1" source="SnCa2u7Qq1uV7oJIc8DQ-134" target="SnCa2u7Qq1uV7oJIc8DQ-126" edge="1">
          <mxGeometry relative="1" as="geometry" />
        </mxCell>
        <mxCell id="SnCa2u7Qq1uV7oJIc8DQ-134" value="x" style="ellipse;whiteSpace=wrap;html=1;aspect=fixed;" parent="1" vertex="1">
          <mxGeometry x="415" y="580" width="20" height="20" as="geometry" />
        </mxCell>
        <mxCell id="SnCa2u7Qq1uV7oJIc8DQ-143" style="edgeStyle=none;rounded=0;orthogonalLoop=1;jettySize=auto;html=1;exitX=0.5;exitY=1;exitDx=0;exitDy=0;entryX=0.5;entryY=0;entryDx=0;entryDy=0;" parent="1" source="SnCa2u7Qq1uV7oJIc8DQ-135" target="SnCa2u7Qq1uV7oJIc8DQ-125" edge="1">
          <mxGeometry relative="1" as="geometry" />
        </mxCell>
        <mxCell id="SnCa2u7Qq1uV7oJIc8DQ-135" value="x" style="ellipse;whiteSpace=wrap;html=1;aspect=fixed;" parent="1" vertex="1">
          <mxGeometry x="455" y="580" width="20" height="20" as="geometry" />
        </mxCell>
        <mxCell id="SnCa2u7Qq1uV7oJIc8DQ-144" style="edgeStyle=none;rounded=0;orthogonalLoop=1;jettySize=auto;html=1;exitX=0.5;exitY=1;exitDx=0;exitDy=0;entryX=0.5;entryY=0;entryDx=0;entryDy=0;" parent="1" source="SnCa2u7Qq1uV7oJIc8DQ-136" target="SnCa2u7Qq1uV7oJIc8DQ-130" edge="1">
          <mxGeometry relative="1" as="geometry" />
        </mxCell>
        <mxCell id="SnCa2u7Qq1uV7oJIc8DQ-136" value="x" style="ellipse;whiteSpace=wrap;html=1;aspect=fixed;" parent="1" vertex="1">
          <mxGeometry x="495" y="580" width="20" height="20" as="geometry" />
        </mxCell>
        <mxCell id="SnCa2u7Qq1uV7oJIc8DQ-145" style="edgeStyle=none;rounded=0;orthogonalLoop=1;jettySize=auto;html=1;exitX=0.5;exitY=1;exitDx=0;exitDy=0;entryX=0.5;entryY=0;entryDx=0;entryDy=0;" parent="1" source="SnCa2u7Qq1uV7oJIc8DQ-137" target="SnCa2u7Qq1uV7oJIc8DQ-128" edge="1">
          <mxGeometry relative="1" as="geometry" />
        </mxCell>
        <mxCell id="SnCa2u7Qq1uV7oJIc8DQ-137" value="x" style="ellipse;whiteSpace=wrap;html=1;aspect=fixed;" parent="1" vertex="1">
          <mxGeometry x="535" y="580" width="20" height="20" as="geometry" />
        </mxCell>
        <mxCell id="SnCa2u7Qq1uV7oJIc8DQ-199" style="edgeStyle=none;rounded=0;orthogonalLoop=1;jettySize=auto;html=1;exitX=0.5;exitY=1;exitDx=0;exitDy=0;entryX=0.5;entryY=0;entryDx=0;entryDy=0;" parent="1" source="SnCa2u7Qq1uV7oJIc8DQ-159" target="SnCa2u7Qq1uV7oJIc8DQ-198" edge="1">
          <mxGeometry relative="1" as="geometry" />
        </mxCell>
        <mxCell id="SnCa2u7Qq1uV7oJIc8DQ-159" value="C_00" style="rounded=0;whiteSpace=wrap;html=1;" parent="1" vertex="1">
          <mxGeometry x="345" y="870" width="40" height="30" as="geometry" />
        </mxCell>
        <mxCell id="SnCa2u7Qq1uV7oJIc8DQ-202" style="edgeStyle=none;rounded=0;orthogonalLoop=1;jettySize=auto;html=1;exitX=0.5;exitY=1;exitDx=0;exitDy=0;entryX=0.5;entryY=0;entryDx=0;entryDy=0;" parent="1" source="SnCa2u7Qq1uV7oJIc8DQ-160" target="SnCa2u7Qq1uV7oJIc8DQ-198" edge="1">
          <mxGeometry relative="1" as="geometry">
            <mxPoint x="420" y="940" as="targetPoint" />
          </mxGeometry>
        </mxCell>
        <mxCell id="SnCa2u7Qq1uV7oJIc8DQ-160" value="C_11" style="rounded=0;whiteSpace=wrap;html=1;" parent="1" vertex="1">
          <mxGeometry x="465" y="870" width="40" height="30" as="geometry" />
        </mxCell>
        <mxCell id="SnCa2u7Qq1uV7oJIc8DQ-201" style="edgeStyle=none;rounded=0;orthogonalLoop=1;jettySize=auto;html=1;exitX=0.5;exitY=1;exitDx=0;exitDy=0;entryX=0.5;entryY=0;entryDx=0;entryDy=0;" parent="1" source="SnCa2u7Qq1uV7oJIc8DQ-161" target="SnCa2u7Qq1uV7oJIc8DQ-198" edge="1">
          <mxGeometry relative="1" as="geometry" />
        </mxCell>
        <mxCell id="SnCa2u7Qq1uV7oJIc8DQ-161" value="C_10" style="rounded=0;whiteSpace=wrap;html=1;" parent="1" vertex="1">
          <mxGeometry x="425" y="870" width="40" height="30" as="geometry" />
        </mxCell>
        <mxCell id="SnCa2u7Qq1uV7oJIc8DQ-200" style="edgeStyle=none;rounded=0;orthogonalLoop=1;jettySize=auto;html=1;exitX=0.5;exitY=1;exitDx=0;exitDy=0;entryX=0.5;entryY=0;entryDx=0;entryDy=0;" parent="1" source="SnCa2u7Qq1uV7oJIc8DQ-162" target="SnCa2u7Qq1uV7oJIc8DQ-198" edge="1">
          <mxGeometry relative="1" as="geometry">
            <mxPoint x="430" y="940" as="targetPoint" />
          </mxGeometry>
        </mxCell>
        <mxCell id="SnCa2u7Qq1uV7oJIc8DQ-162" value="C_01" style="rounded=0;whiteSpace=wrap;html=1;" parent="1" vertex="1">
          <mxGeometry x="385" y="870" width="40" height="30" as="geometry" />
        </mxCell>
        <mxCell id="SnCa2u7Qq1uV7oJIc8DQ-177" style="edgeStyle=none;rounded=0;orthogonalLoop=1;jettySize=auto;html=1;exitX=1;exitY=0.5;exitDx=0;exitDy=0;entryX=0;entryY=0.5;entryDx=0;entryDy=0;" parent="1" source="SnCa2u7Qq1uV7oJIc8DQ-163" target="SnCa2u7Qq1uV7oJIc8DQ-176" edge="1">
          <mxGeometry relative="1" as="geometry" />
        </mxCell>
        <mxCell id="SnCa2u7Qq1uV7oJIc8DQ-163" value="+" style="ellipse;whiteSpace=wrap;html=1;aspect=fixed;" parent="1" vertex="1">
          <mxGeometry x="280" y="790" width="20" height="20" as="geometry" />
        </mxCell>
        <mxCell id="SnCa2u7Qq1uV7oJIc8DQ-168" style="edgeStyle=none;rounded=0;orthogonalLoop=1;jettySize=auto;html=1;exitX=0.5;exitY=1;exitDx=0;exitDy=0;entryX=0.5;entryY=0;entryDx=0;entryDy=0;" parent="1" source="SnCa2u7Qq1uV7oJIc8DQ-164" target="SnCa2u7Qq1uV7oJIc8DQ-162" edge="1">
          <mxGeometry relative="1" as="geometry" />
        </mxCell>
        <mxCell id="SnCa2u7Qq1uV7oJIc8DQ-164" value="+" style="ellipse;whiteSpace=wrap;html=1;aspect=fixed;" parent="1" vertex="1">
          <mxGeometry x="395" y="820" width="20" height="20" as="geometry" />
        </mxCell>
        <mxCell id="SnCa2u7Qq1uV7oJIc8DQ-169" style="edgeStyle=none;rounded=0;orthogonalLoop=1;jettySize=auto;html=1;exitX=0.5;exitY=1;exitDx=0;exitDy=0;entryX=0.5;entryY=0;entryDx=0;entryDy=0;" parent="1" source="SnCa2u7Qq1uV7oJIc8DQ-165" target="SnCa2u7Qq1uV7oJIc8DQ-161" edge="1">
          <mxGeometry relative="1" as="geometry" />
        </mxCell>
        <mxCell id="SnCa2u7Qq1uV7oJIc8DQ-165" value="+" style="ellipse;whiteSpace=wrap;html=1;aspect=fixed;" parent="1" vertex="1">
          <mxGeometry x="435" y="820" width="20" height="20" as="geometry" />
        </mxCell>
        <mxCell id="SnCa2u7Qq1uV7oJIc8DQ-176" value="-" style="ellipse;whiteSpace=wrap;html=1;aspect=fixed;" parent="1" vertex="1">
          <mxGeometry x="320" y="790" width="20" height="20" as="geometry" />
        </mxCell>
        <mxCell id="SnCa2u7Qq1uV7oJIc8DQ-182" style="edgeStyle=none;rounded=0;orthogonalLoop=1;jettySize=auto;html=1;exitX=0.5;exitY=1;exitDx=0;exitDy=0;entryX=0.5;entryY=0;entryDx=0;entryDy=0;" parent="1" source="SnCa2u7Qq1uV7oJIc8DQ-179" target="SnCa2u7Qq1uV7oJIc8DQ-159" edge="1">
          <mxGeometry relative="1" as="geometry" />
        </mxCell>
        <mxCell id="SnCa2u7Qq1uV7oJIc8DQ-179" value="+" style="ellipse;whiteSpace=wrap;html=1;aspect=fixed;" parent="1" vertex="1">
          <mxGeometry x="355" y="790" width="20" height="20" as="geometry" />
        </mxCell>
        <mxCell id="SnCa2u7Qq1uV7oJIc8DQ-180" style="edgeStyle=none;rounded=0;orthogonalLoop=1;jettySize=auto;html=1;exitX=1;exitY=0.5;exitDx=0;exitDy=0;entryX=0;entryY=0.5;entryDx=0;entryDy=0;" parent="1" source="SnCa2u7Qq1uV7oJIc8DQ-176" target="SnCa2u7Qq1uV7oJIc8DQ-179" edge="1">
          <mxGeometry relative="1" as="geometry" />
        </mxCell>
        <mxCell id="SnCa2u7Qq1uV7oJIc8DQ-187" style="edgeStyle=none;rounded=0;orthogonalLoop=1;jettySize=auto;html=1;exitX=0;exitY=0.5;exitDx=0;exitDy=0;entryX=1;entryY=0.5;entryDx=0;entryDy=0;" parent="1" source="SnCa2u7Qq1uV7oJIc8DQ-188" target="SnCa2u7Qq1uV7oJIc8DQ-189" edge="1">
          <mxGeometry relative="1" as="geometry" />
        </mxCell>
        <mxCell id="SnCa2u7Qq1uV7oJIc8DQ-188" value="-" style="ellipse;whiteSpace=wrap;html=1;aspect=fixed;" parent="1" vertex="1">
          <mxGeometry x="555" y="790" width="20" height="20" as="geometry" />
        </mxCell>
        <mxCell id="SnCa2u7Qq1uV7oJIc8DQ-189" value="+" style="ellipse;whiteSpace=wrap;html=1;aspect=fixed;" parent="1" vertex="1">
          <mxGeometry x="515" y="790" width="20" height="20" as="geometry" />
        </mxCell>
        <mxCell id="SnCa2u7Qq1uV7oJIc8DQ-197" style="edgeStyle=none;rounded=0;orthogonalLoop=1;jettySize=auto;html=1;exitX=0.5;exitY=1;exitDx=0;exitDy=0;entryX=0.5;entryY=0;entryDx=0;entryDy=0;" parent="1" source="SnCa2u7Qq1uV7oJIc8DQ-190" target="SnCa2u7Qq1uV7oJIc8DQ-160" edge="1">
          <mxGeometry relative="1" as="geometry" />
        </mxCell>
        <mxCell id="SnCa2u7Qq1uV7oJIc8DQ-190" value="+" style="ellipse;whiteSpace=wrap;html=1;aspect=fixed;" parent="1" vertex="1">
          <mxGeometry x="475" y="790" width="20" height="20" as="geometry" />
        </mxCell>
        <mxCell id="SnCa2u7Qq1uV7oJIc8DQ-191" style="edgeStyle=none;rounded=0;orthogonalLoop=1;jettySize=auto;html=1;exitX=0;exitY=0.5;exitDx=0;exitDy=0;entryX=1;entryY=0.5;entryDx=0;entryDy=0;" parent="1" source="SnCa2u7Qq1uV7oJIc8DQ-189" target="SnCa2u7Qq1uV7oJIc8DQ-190" edge="1">
          <mxGeometry relative="1" as="geometry" />
        </mxCell>
        <mxCell id="SnCa2u7Qq1uV7oJIc8DQ-198" value="C_ij" style="rounded=0;whiteSpace=wrap;html=1;" parent="1" vertex="1">
          <mxGeometry x="315" y="940" width="220" height="30" as="geometry" />
        </mxCell>
      </root>
    </mxGraphModel>
  </diagram>
</mxfile>
